<mxfile host="app.diagrams.net" agent="Mozilla/5.0 (Windows NT 10.0; Win64; x64) AppleWebKit/537.36 (KHTML, like Gecko) Chrome/139.0.0.0 Safari/537.36" version="28.1.0">
  <diagram name="第 1 页" id="2kTXe6WtXxTHrCK6W9D9">
    <mxGraphModel dx="1042" dy="527" grid="1" gridSize="10" guides="1" tooltips="1" connect="1" arrows="1" fold="1" page="1" pageScale="1" pageWidth="827" pageHeight="1169" math="0" shadow="0">
      <root>
        <mxCell id="0" />
        <mxCell id="1" parent="0" />
        <mxCell id="geReMuQLmWx2-0_fnQ3M-5" style="edgeStyle=orthogonalEdgeStyle;rounded=0;orthogonalLoop=1;jettySize=auto;html=1;entryX=0;entryY=0.25;entryDx=0;entryDy=0;" edge="1" parent="1" source="geReMuQLmWx2-0_fnQ3M-1" target="geReMuQLmWx2-0_fnQ3M-4">
          <mxGeometry relative="1" as="geometry" />
        </mxCell>
        <mxCell id="geReMuQLmWx2-0_fnQ3M-1" value="DM 001" style="rounded=0;whiteSpace=wrap;html=1;" vertex="1" parent="1">
          <mxGeometry x="130" y="90" width="210" height="50" as="geometry" />
        </mxCell>
        <mxCell id="geReMuQLmWx2-0_fnQ3M-6" style="edgeStyle=orthogonalEdgeStyle;rounded=0;orthogonalLoop=1;jettySize=auto;html=1;entryX=0;entryY=0.5;entryDx=0;entryDy=0;" edge="1" parent="1" source="geReMuQLmWx2-0_fnQ3M-2" target="geReMuQLmWx2-0_fnQ3M-4">
          <mxGeometry relative="1" as="geometry" />
        </mxCell>
        <mxCell id="geReMuQLmWx2-0_fnQ3M-2" value="DM 002" style="rounded=0;whiteSpace=wrap;html=1;" vertex="1" parent="1">
          <mxGeometry x="130" y="180" width="210" height="50" as="geometry" />
        </mxCell>
        <mxCell id="geReMuQLmWx2-0_fnQ3M-4" value="Cir 001" style="rounded=0;whiteSpace=wrap;html=1;" vertex="1" parent="1">
          <mxGeometry x="460" y="180" width="210" height="50" as="geometry" />
        </mxCell>
        <mxCell id="geReMuQLmWx2-0_fnQ3M-10" style="edgeStyle=orthogonalEdgeStyle;rounded=0;orthogonalLoop=1;jettySize=auto;html=1;entryX=0;entryY=0.5;entryDx=0;entryDy=0;" edge="1" parent="1" source="geReMuQLmWx2-0_fnQ3M-7" target="geReMuQLmWx2-0_fnQ3M-8">
          <mxGeometry relative="1" as="geometry" />
        </mxCell>
        <mxCell id="geReMuQLmWx2-0_fnQ3M-7" value="未定稿" style="rounded=0;whiteSpace=wrap;html=1;" vertex="1" parent="1">
          <mxGeometry x="140" y="470" width="150" height="50" as="geometry" />
        </mxCell>
        <mxCell id="geReMuQLmWx2-0_fnQ3M-11" style="edgeStyle=orthogonalEdgeStyle;rounded=0;orthogonalLoop=1;jettySize=auto;html=1;entryX=0;entryY=0.5;entryDx=0;entryDy=0;" edge="1" parent="1" source="geReMuQLmWx2-0_fnQ3M-8" target="geReMuQLmWx2-0_fnQ3M-9">
          <mxGeometry relative="1" as="geometry" />
        </mxCell>
        <mxCell id="geReMuQLmWx2-0_fnQ3M-16" style="edgeStyle=orthogonalEdgeStyle;rounded=0;orthogonalLoop=1;jettySize=auto;html=1;entryX=0.381;entryY=0.992;entryDx=0;entryDy=0;entryPerimeter=0;" edge="1" parent="1" source="geReMuQLmWx2-0_fnQ3M-8" target="geReMuQLmWx2-0_fnQ3M-7">
          <mxGeometry relative="1" as="geometry">
            <mxPoint x="460" y="620" as="targetPoint" />
            <Array as="points">
              <mxPoint x="435" y="600" />
              <mxPoint x="197" y="600" />
            </Array>
          </mxGeometry>
        </mxCell>
        <mxCell id="geReMuQLmWx2-0_fnQ3M-8" value="已定稿" style="rounded=0;whiteSpace=wrap;html=1;" vertex="1" parent="1">
          <mxGeometry x="360" y="470" width="150" height="50" as="geometry" />
        </mxCell>
        <mxCell id="geReMuQLmWx2-0_fnQ3M-12" style="edgeStyle=orthogonalEdgeStyle;rounded=0;orthogonalLoop=1;jettySize=auto;html=1;entryX=0.5;entryY=0;entryDx=0;entryDy=0;" edge="1" parent="1" source="geReMuQLmWx2-0_fnQ3M-9" target="geReMuQLmWx2-0_fnQ3M-8">
          <mxGeometry relative="1" as="geometry">
            <Array as="points">
              <mxPoint x="680" y="420" />
              <mxPoint x="435" y="420" />
            </Array>
          </mxGeometry>
        </mxCell>
        <mxCell id="geReMuQLmWx2-0_fnQ3M-9" value="无效" style="rounded=0;whiteSpace=wrap;html=1;" vertex="1" parent="1">
          <mxGeometry x="590" y="470" width="150" height="50" as="geometry" />
        </mxCell>
        <mxCell id="geReMuQLmWx2-0_fnQ3M-13" value="作废" style="text;html=1;align=center;verticalAlign=middle;resizable=0;points=[];autosize=1;strokeColor=none;fillColor=none;" vertex="1" parent="1">
          <mxGeometry x="515" y="498" width="50" height="30" as="geometry" />
        </mxCell>
        <mxCell id="geReMuQLmWx2-0_fnQ3M-14" value="启用" style="text;html=1;align=center;verticalAlign=middle;resizable=0;points=[];autosize=1;strokeColor=none;fillColor=none;" vertex="1" parent="1">
          <mxGeometry x="525" y="388" width="50" height="30" as="geometry" />
        </mxCell>
        <mxCell id="geReMuQLmWx2-0_fnQ3M-15" value="定稿" style="text;html=1;align=center;verticalAlign=middle;resizable=0;points=[];autosize=1;strokeColor=none;fillColor=none;" vertex="1" parent="1">
          <mxGeometry x="295" y="458" width="50" height="30" as="geometry" />
        </mxCell>
        <mxCell id="geReMuQLmWx2-0_fnQ3M-17" value="升版" style="text;html=1;align=center;verticalAlign=middle;resizable=0;points=[];autosize=1;strokeColor=none;fillColor=none;" vertex="1" parent="1">
          <mxGeometry x="300" y="560" width="50" height="30" as="geometry" />
        </mxCell>
        <mxCell id="geReMuQLmWx2-0_fnQ3M-20" style="edgeStyle=orthogonalEdgeStyle;rounded=0;orthogonalLoop=1;jettySize=auto;html=1;" edge="1" parent="1" source="geReMuQLmWx2-0_fnQ3M-18" target="geReMuQLmWx2-0_fnQ3M-19">
          <mxGeometry relative="1" as="geometry" />
        </mxCell>
        <mxCell id="geReMuQLmWx2-0_fnQ3M-18" value="已定稿" style="rounded=0;whiteSpace=wrap;html=1;" vertex="1" parent="1">
          <mxGeometry x="370" y="720" width="150" height="50" as="geometry" />
        </mxCell>
        <mxCell id="geReMuQLmWx2-0_fnQ3M-21" style="edgeStyle=orthogonalEdgeStyle;rounded=0;orthogonalLoop=1;jettySize=auto;html=1;entryX=0.5;entryY=0;entryDx=0;entryDy=0;" edge="1" parent="1" source="geReMuQLmWx2-0_fnQ3M-19" target="geReMuQLmWx2-0_fnQ3M-18">
          <mxGeometry relative="1" as="geometry">
            <Array as="points">
              <mxPoint x="675" y="680" />
              <mxPoint x="445" y="680" />
            </Array>
          </mxGeometry>
        </mxCell>
        <mxCell id="geReMuQLmWx2-0_fnQ3M-19" value="无效" style="rounded=0;whiteSpace=wrap;html=1;" vertex="1" parent="1">
          <mxGeometry x="600" y="720" width="150" height="50" as="geometry" />
        </mxCell>
      </root>
    </mxGraphModel>
  </diagram>
</mxfile>
